<?xml version="1.0" standalone="no"?>
<!DOCTYPE svg PUBLIC "-//W3C//DTD SVG 20010904//EN"
 "http://www.w3.org/TR/2001/REC-SVG-20010904/DTD/svg10.dtd">
<svg version="1.0" xmlns="http://www.w3.org/2000/svg"
 width="500.000000pt" height="500.000000pt" viewBox="0 0 500.000000 500.000000"
 preserveAspectRatio="xMidYMid meet">
<metadata>
Created by potrace 1.14, written by Peter Selinger 2001-2017
</metadata>
<g transform="translate(0.000000,500.000000) scale(0.100000,-0.100000)"
fill="#000000" stroke="none">
<path d="M0 2500 l0 -2500 2500 0 2500 0 0 2500 0 2500 -2500 0 -2500 0 0
-2500z m1011 839 c35 -17 93 -45 129 -61 36 -16 108 -50 160 -74 52 -25 176
-82 275 -128 l180 -83 3 -61 c2 -34 1 -62 -1 -62 -2 0 -174 79 -382 175 -209
96 -383 175 -387 175 -4 0 -8 -126 -8 -280 l0 -280 -55 0 -55 0 0 355 0 355
38 0 c23 0 65 -13 103 -31z m1289 -592 c201 -91 426 -192 500 -226 l135 -61
-133 0 c-126 0 -136 2 -195 29 -34 16 -165 75 -292 131 -126 56 -252 112 -280
125 -27 12 -98 44 -157 70 l-108 48 0 63 0 63 83 -39 c45 -21 246 -112 447
-203z m1400 -323 l0 -166 46 26 c40 22 59 26 134 26 85 0 89 -1 169 -46 l81
-46 0 -284 0 -284 -65 0 -65 0 0 270 0 270 -150 0 -150 0 -2 -267 -3 -268 -65
0 -65 0 -3 468 -2 467 70 0 70 0 0 -166z m-2485 -201 l230 -336 3 336 2 337
65 0 65 0 0 -455 0 -455 -58 0 -58 0 -230 336 -229 335 -3 -335 -2 -336 -65 0
-65 0 0 455 0 455 58 0 57 0 230 -337z m2025 162 l0 -85 75 0 75 0 0 -60 0
-60 -75 0 -75 0 0 -205 0 -205 75 0 75 0 0 -60 0 -60 -64 0 c-58 0 -72 4 -138
43 l-73 44 -3 221 -2 222 -60 0 -60 0 0 60 0 60 60 0 60 0 0 53 0 53 53 31
c28 17 58 32 65 32 9 1 12 -22 12 -84z m-985 -115 c40 -22 78 -46 84 -54 8 -9
11 -84 9 -247 l-3 -234 -70 -42 -70 -43 -135 0 -135 0 -70 43 -70 42 0 240 0
240 79 48 79 47 115 0 115 0 72 -40z m402 4 l19 -25 44 25 c37 21 58 26 118
26 l72 0 0 -60 0 -60 -115 0 -115 0 -2 -262 -3 -263 -65 0 -65 0 -3 310 c-1
170 0 315 3 322 2 8 22 13 49 13 36 0 48 -5 63 -26z"/>
<path d="M1930 1975 l0 -215 140 0 140 0 0 215 0 215 -140 0 -140 0 0 -215z"/>
</g>
</svg>
