<?xml version="1.0" standalone="no"?>
<!DOCTYPE svg PUBLIC "-//W3C//DTD SVG 20010904//EN"
 "http://www.w3.org/TR/2001/REC-SVG-20010904/DTD/svg10.dtd">
<svg version="1.0" xmlns="http://www.w3.org/2000/svg"
 width="500.000000pt" height="500.000000pt" viewBox="0 0 500.000000 500.000000"
 preserveAspectRatio="xMidYMid meet">
<metadata>
Created by potrace 1.14, written by Peter Selinger 2001-2017
</metadata>
<g transform="translate(0.000000,500.000000) scale(0.100000,-0.100000)"
fill="#000000" stroke="none">
<path d="M0 2500 l0 -2500 2500 0 2500 0 0 2500 0 2500 -2500 0 -2500 0 0
-2500z m3690 -81 l0 -171 44 26 c40 24 54 26 148 26 l103 0 70 -43 70 -42 0
-280 0 -280 -62 -3 -63 -3 0 271 0 270 -155 0 -155 0 0 -270 0 -270 -60 0 -60
0 0 470 0 470 60 0 60 0 0 -171z m-2473 -203 l228 -334 3 334 2 334 65 0 65 0
0 -450 0 -450 -54 0 c-66 0 -32 -40 -315 374 l-211 309 -2 -339 -3 -339 -62
-3 -63 -3 0 451 0 450 59 0 59 0 229 -334z m2023 169 l0 -85 75 0 75 0 0 -60
0 -60 -75 0 -75 0 0 -205 0 -205 75 0 75 0 0 -60 0 -60 -60 0 c-54 0 -70 5
-140 46 l-80 46 0 218 0 219 -57 3 -58 3 0 55 0 55 57 3 57 3 3 51 c3 51 4 52
58 85 30 18 58 33 63 33 4 0 7 -38 7 -85z m-971 -126 l71 -41 0 -243 0 -244
-74 -40 -73 -41 -123 0 -123 0 -73 41 -74 40 0 244 0 243 68 40 67 40 132 1
131 1 71 -41z m383 16 c14 -31 21 -31 75 0 37 22 53 25 111 23 l67 -3 0 -55 0
-55 -117 -3 -118 -3 0 -264 0 -265 -60 0 -60 0 0 325 0 325 45 0 c39 0 47 -4
57 -25z"/>
<path d="M1920 1975 l0 -215 150 0 150 0 0 215 0 215 -150 0 -150 0 0 -215z"/>
</g>
</svg>
